#pragma once
#define alpha_width 96
#define alpha_height 64
static unsigned char alpha_bits[] PROGMEM = {
   0xff, 0xff, 0xff, 0xff, 0xff, 0xff, 0xff, 0xff, 0xff, 0xff, 0xff, 0xff,
   0xff, 0xff, 0xff, 0xff, 0xff, 0xff, 0xff, 0xff, 0xff, 0xff, 0xff, 0x7f,
   0x03, 0x00, 0x00, 0x00, 0x00, 0x00, 0x55, 0x55, 0x55, 0x55, 0x55, 0x35,
   0x03, 0x00, 0x00, 0x00, 0x00, 0x00, 0xbb, 0xbb, 0xbb, 0xbb, 0xbb, 0x1b,
   0x03, 0x00, 0x00, 0x00, 0x00, 0x00, 0x55, 0x55, 0x55, 0x55, 0x55, 0x0d,
   0x03, 0x00, 0x00, 0x00, 0x00, 0x00, 0xee, 0xee, 0xee, 0xee, 0xee, 0x06,
   0x03, 0x00, 0x00, 0x00, 0x00, 0x00, 0x55, 0x55, 0x55, 0x55, 0x55, 0x03,
   0x03, 0x00, 0x00, 0x00, 0x00, 0x00, 0xbb, 0xbb, 0xbb, 0xbb, 0xbb, 0x01,
   0x03, 0x00, 0x00, 0x00, 0x00, 0x00, 0x55, 0x55, 0x55, 0x55, 0xd5, 0x00,
   0x03, 0x00, 0x00, 0x00, 0x00, 0x00, 0xee, 0xee, 0xee, 0xee, 0x6e, 0x00,
   0x03, 0x00, 0x00, 0x00, 0x00, 0x00, 0x55, 0x55, 0x55, 0x55, 0x35, 0x00,
   0x03, 0x00, 0x00, 0x00, 0x00, 0x00, 0xbb, 0xbb, 0xbb, 0xbb, 0x1b, 0x00,
   0x03, 0x00, 0x00, 0x00, 0x00, 0x00, 0x55, 0x55, 0x55, 0x55, 0x0d, 0x00,
   0x03, 0x00, 0x00, 0x00, 0x00, 0x00, 0xee, 0xee, 0xee, 0xee, 0x06, 0x00,
   0x03, 0x00, 0x00, 0x00, 0x00, 0x00, 0x55, 0x55, 0x55, 0x55, 0x03, 0x00,
   0x03, 0x00, 0x00, 0x00, 0x00, 0x00, 0xbb, 0xbb, 0xbb, 0xbb, 0x01, 0x00,
   0x03, 0x00, 0x00, 0x00, 0x00, 0x00, 0x55, 0x55, 0x55, 0xd5, 0x00, 0x00,
   0x03, 0x00, 0x00, 0x00, 0x00, 0x00, 0xee, 0xee, 0xee, 0x6e, 0x00, 0x00,
   0x03, 0x00, 0x00, 0x00, 0x00, 0x00, 0x55, 0x55, 0x55, 0x35, 0x00, 0x00,
   0x03, 0x00, 0x00, 0x00, 0x00, 0x00, 0xbb, 0xbb, 0xbb, 0x1b, 0x00, 0x00,
   0x03, 0x00, 0x00, 0x00, 0x00, 0x00, 0x55, 0x55, 0x55, 0x0d, 0x00, 0x00,
   0x03, 0x00, 0x00, 0x00, 0x00, 0x00, 0xee, 0xee, 0xee, 0x06, 0x00, 0x00,
   0x03, 0x00, 0x00, 0x00, 0x00, 0x00, 0x55, 0x55, 0x55, 0x03, 0x00, 0x00,
   0x03, 0x00, 0x00, 0x00, 0x00, 0x00, 0xbb, 0xbb, 0xbb, 0x01, 0x00, 0x00,
   0x03, 0x00, 0x00, 0x00, 0x00, 0x00, 0x55, 0x55, 0xd5, 0x00, 0x00, 0x00,
   0x03, 0x00, 0x00, 0x00, 0x00, 0x00, 0xee, 0xee, 0x6e, 0x00, 0x00, 0x00,
   0x03, 0x00, 0x00, 0x00, 0x00, 0x00, 0x55, 0x55, 0x35, 0x00, 0x00, 0x00,
   0x03, 0x00, 0x00, 0x00, 0x00, 0x00, 0xbb, 0xbb, 0x1b, 0x00, 0x00, 0x00,
   0x03, 0x00, 0x00, 0x00, 0x00, 0x00, 0x55, 0x55, 0x0d, 0x00, 0x00, 0x00,
   0x03, 0x00, 0x00, 0x00, 0x00, 0x00, 0xee, 0xee, 0x06, 0x00, 0x00, 0x00,
   0x03, 0x00, 0x00, 0x00, 0x00, 0x00, 0x55, 0x55, 0x03, 0x00, 0x00, 0x00,
   0x03, 0x00, 0x00, 0x00, 0x00, 0x00, 0xbb, 0xbb, 0x01, 0x00, 0x00, 0x00,
   0x03, 0x00, 0x00, 0x00, 0x00, 0x00, 0x55, 0x55, 0x03, 0x00, 0x00, 0x00,
   0x03, 0x00, 0x00, 0x00, 0x00, 0x00, 0xee, 0xee, 0x06, 0x00, 0x00, 0x00,
   0x03, 0x00, 0x00, 0x00, 0x00, 0x00, 0x55, 0x55, 0x0d, 0x00, 0x00, 0x00,
   0x03, 0x00, 0x00, 0x00, 0x00, 0x00, 0xbb, 0xbb, 0x1b, 0x00, 0x00, 0x00,
   0x03, 0x00, 0x00, 0x00, 0x00, 0x00, 0x55, 0x55, 0x35, 0x00, 0x00, 0x00,
   0x03, 0x00, 0x00, 0x00, 0x00, 0x00, 0xee, 0xee, 0x6e, 0x00, 0x00, 0x00,
   0x03, 0x00, 0x00, 0x00, 0x00, 0x00, 0x55, 0x55, 0xd5, 0x00, 0x00, 0x00,
   0x03, 0x00, 0x00, 0x00, 0x00, 0x00, 0xbb, 0xbb, 0xbb, 0x01, 0x00, 0x00,
   0x03, 0x00, 0x00, 0x00, 0x00, 0x00, 0x55, 0x55, 0x55, 0x03, 0x00, 0x00,
   0x03, 0x00, 0x00, 0x00, 0x00, 0x00, 0xee, 0xee, 0xee, 0x06, 0x00, 0x00,
   0x03, 0x00, 0x00, 0x00, 0x00, 0x00, 0x55, 0x55, 0x55, 0x0d, 0x00, 0x00,
   0x03, 0x00, 0x00, 0x00, 0x00, 0x00, 0xbb, 0xbb, 0xbb, 0x1b, 0x00, 0x00,
   0x03, 0x00, 0x00, 0x00, 0x00, 0x00, 0x55, 0x55, 0x55, 0x35, 0x00, 0x00,
   0x03, 0x00, 0x00, 0x00, 0x00, 0x00, 0xee, 0xee, 0xee, 0x6e, 0x00, 0x00,
   0x03, 0x00, 0x00, 0x00, 0x00, 0x00, 0x55, 0x55, 0x55, 0xd5, 0x00, 0x00,
   0x03, 0x00, 0x00, 0x00, 0x00, 0x00, 0xbb, 0xbb, 0xbb, 0xbb, 0x01, 0x00,
   0x03, 0x00, 0x00, 0x00, 0x00, 0x00, 0x55, 0x55, 0x55, 0x55, 0x03, 0x00,
   0x03, 0x00, 0x00, 0x00, 0x00, 0x00, 0xee, 0xee, 0xee, 0xee, 0x06, 0x00,
   0x03, 0x00, 0x00, 0x00, 0x00, 0x00, 0x55, 0x55, 0x55, 0x55, 0x0d, 0x00,
   0x03, 0x00, 0x00, 0x00, 0x00, 0x00, 0xbb, 0xbb, 0xbb, 0xbb, 0x1b, 0x00,
   0x03, 0x00, 0x00, 0x00, 0x00, 0x00, 0x55, 0x55, 0x55, 0x55, 0x35, 0x00,
   0x03, 0x00, 0x00, 0x00, 0x00, 0x00, 0xee, 0xee, 0xee, 0xee, 0x6e, 0x00,
   0x03, 0x00, 0x00, 0x00, 0x00, 0x00, 0x55, 0x55, 0x55, 0x55, 0xd5, 0x00,
   0x03, 0x00, 0x00, 0x00, 0x00, 0x00, 0xbb, 0xbb, 0xbb, 0xbb, 0xbb, 0x01,
   0x03, 0x00, 0x00, 0x00, 0x00, 0x00, 0x55, 0x55, 0x55, 0x55, 0x55, 0x03,
   0x03, 0x00, 0x00, 0x00, 0x00, 0x00, 0xee, 0xee, 0xee, 0xee, 0xee, 0x06,
   0x03, 0x00, 0x00, 0x00, 0x00, 0x00, 0x55, 0x55, 0x55, 0x55, 0x55, 0x0d,
   0x03, 0x00, 0x00, 0x00, 0x00, 0x00, 0xbb, 0xbb, 0xbb, 0xbb, 0xbb, 0x1b,
   0x03, 0x00, 0x00, 0x00, 0x00, 0x00, 0x55, 0x55, 0x55, 0x55, 0x55, 0x35,
   0x03, 0x00, 0x00, 0x00, 0x00, 0x00, 0xee, 0xee, 0xee, 0xee, 0xee, 0x6e,
   0xff, 0xff, 0xff, 0xff, 0xff, 0xff, 0xff, 0xff, 0xff, 0xff, 0xff, 0xff,
   0xff, 0xff, 0xff, 0xff, 0xff, 0xff, 0xff, 0xff, 0xff, 0xff, 0xff, 0xff };
