#pragma once
#define repeat_one_width 96
#define repeat_one_height 64
static unsigned char repeat_one_bits[] PROGMEM = {
   0x00, 0x00, 0x00, 0x00, 0x00, 0x00, 0x00, 0x00, 0x00, 0x00, 0x00, 0x00,
   0x07, 0x00, 0x00, 0x00, 0x00, 0x00, 0x00, 0x00, 0x00, 0x00, 0x00, 0x00,
   0x3f, 0x00, 0x00, 0x00, 0x00, 0x00, 0x00, 0x00, 0x00, 0x00, 0x00, 0x00,
   0xfb, 0x01, 0x00, 0x00, 0x00, 0x00, 0x00, 0x00, 0x00, 0x00, 0x00, 0x00,
   0x57, 0x0f, 0x00, 0x00, 0x00, 0x00, 0x00, 0x00, 0x00, 0x00, 0x00, 0x00,
   0xef, 0x7e, 0x00, 0x00, 0x00, 0x00, 0x00, 0x00, 0x00, 0x00, 0x00, 0x00,
   0x57, 0xd5, 0x07, 0x00, 0x00, 0x00, 0x00, 0x00, 0x00, 0x00, 0x00, 0x00,
   0xbb, 0xbb, 0x7f, 0x00, 0x00, 0x00, 0x00, 0x00, 0x00, 0x00, 0x00, 0x00,
   0x57, 0x55, 0xd5, 0x03, 0x00, 0x00, 0x00, 0x00, 0x00, 0x00, 0x00, 0x00,
   0xef, 0xee, 0xee, 0x1e, 0x00, 0x00, 0x00, 0x00, 0x00, 0x00, 0x00, 0x00,
   0x57, 0x55, 0x55, 0xf5, 0x00, 0x00, 0x00, 0x00, 0x00, 0x00, 0x00, 0x00,
   0xbb, 0xbb, 0xbb, 0xbb, 0x07, 0x00, 0x00, 0x00, 0x00, 0x00, 0x00, 0x00,
   0x43, 0x55, 0x55, 0x55, 0x7d, 0x00, 0x00, 0x00, 0x00, 0x00, 0x00, 0x00,
   0x0b, 0xef, 0xee, 0xee, 0xae, 0x03, 0x00, 0x00, 0x00, 0x00, 0x00, 0x00,
   0x03, 0x70, 0x55, 0x55, 0x55, 0x1d, 0x00, 0x00, 0x00, 0x00, 0x00, 0x00,
   0x23, 0xc2, 0xbb, 0xbb, 0xbb, 0x7b, 0x00, 0x00, 0x00, 0x00, 0x00, 0x00,
   0x03, 0x00, 0x54, 0x55, 0x55, 0xd5, 0x07, 0x00, 0x00, 0x00, 0x00, 0x00,
   0x8b, 0x88, 0xe0, 0xee, 0xee, 0xee, 0x3e, 0x00, 0x00, 0x00, 0x00, 0x00,
   0x03, 0x00, 0x00, 0x55, 0x55, 0x55, 0xd5, 0x03, 0x00, 0x00, 0x00, 0x00,
   0x23, 0x22, 0x22, 0xb8, 0xbb, 0xbb, 0xbb, 0x1f, 0x00, 0x00, 0x00, 0x00,
   0x03, 0x00, 0x00, 0x40, 0x55, 0x55, 0x55, 0xf5, 0x00, 0x00, 0x00, 0x00,
   0x8b, 0x88, 0x88, 0x08, 0xee, 0xee, 0xee, 0xee, 0x07, 0x00, 0x00, 0x00,
   0x03, 0x00, 0x00, 0x00, 0x50, 0x55, 0x55, 0x55, 0x3d, 0x00, 0x00, 0x00,
   0x23, 0x22, 0x22, 0x22, 0x82, 0xbb, 0xbb, 0xbb, 0xfb, 0x01, 0x00, 0x00,
   0x03, 0x00, 0x00, 0x00, 0x00, 0x54, 0x55, 0x55, 0x55, 0x0f, 0x00, 0x00,
   0x8b, 0x88, 0x88, 0x88, 0x88, 0xe0, 0xee, 0xee, 0xee, 0x7e, 0x00, 0x00,
   0x03, 0x00, 0x00, 0x00, 0x00, 0x00, 0x55, 0x55, 0x55, 0xd5, 0x03, 0x00,
   0x23, 0x22, 0x22, 0x22, 0x22, 0x22, 0xb0, 0xbb, 0xbb, 0xbb, 0x1f, 0x00,
   0x03, 0x00, 0x00, 0x00, 0x00, 0x00, 0x00, 0x55, 0x55, 0x55, 0xf5, 0x00,
   0x8b, 0x88, 0x88, 0x88, 0x88, 0x88, 0x88, 0xee, 0xee, 0xee, 0xee, 0x07,
   0x03, 0x00, 0x00, 0x00, 0x00, 0x00, 0x00, 0x50, 0x55, 0x55, 0x55, 0x1d,
   0x23, 0x22, 0x22, 0x22, 0x22, 0x22, 0x22, 0xa2, 0xbb, 0xbb, 0xbb, 0x7b,
   0x03, 0x00, 0x00, 0x00, 0x00, 0x00, 0x00, 0x50, 0x55, 0x55, 0x55, 0x1d,
   0x8b, 0x88, 0x88, 0x88, 0x88, 0x88, 0x88, 0xee, 0xee, 0xee, 0xee, 0x07,
   0x03, 0x00, 0x00, 0x00, 0x00, 0x00, 0x00, 0x54, 0x55, 0x55, 0xf5, 0x00,
   0x23, 0x22, 0x22, 0x22, 0x22, 0x22, 0xb0, 0xbb, 0xbb, 0xbb, 0x1f, 0x00,
   0x03, 0x00, 0x00, 0x00, 0x00, 0x00, 0x54, 0x55, 0x55, 0xd5, 0x03, 0x00,
   0x8b, 0x88, 0x88, 0x88, 0x88, 0xc0, 0xee, 0xee, 0xee, 0x7e, 0x00, 0x00,
   0x03, 0x00, 0x00, 0x00, 0x00, 0x54, 0x55, 0x55, 0x55, 0x0f, 0x00, 0x00,
   0x23, 0x22, 0x22, 0x22, 0x02, 0xbb, 0xbb, 0xbb, 0xfb, 0x03, 0x00, 0x00,
   0x03, 0x00, 0x00, 0x00, 0x40, 0x55, 0x55, 0x55, 0x3d, 0x00, 0x00, 0x00,
   0x8b, 0x88, 0x88, 0x08, 0xee, 0xee, 0xee, 0xee, 0x07, 0x00, 0x00, 0x00,
   0x03, 0x00, 0x00, 0x40, 0x55, 0x55, 0x55, 0xf5, 0x00, 0x00, 0x00, 0x00,
   0x23, 0x22, 0x22, 0xb0, 0xbb, 0xbb, 0xbb, 0x1f, 0x00, 0x00, 0x00, 0x00,
   0x03, 0x00, 0x00, 0x55, 0x55, 0x55, 0xd5, 0x01, 0x00, 0x00, 0x00, 0x00,
   0x8b, 0x88, 0xe0, 0xee, 0xee, 0xee, 0x7e, 0x00, 0x00, 0x00, 0x00, 0x00,
   0x03, 0x00, 0x54, 0x55, 0x55, 0xd5, 0x07, 0x00, 0x00, 0x00, 0x00, 0x00,
   0x23, 0xc2, 0xbb, 0xbb, 0xbb, 0xfb, 0x00, 0x00, 0x00, 0x00, 0x00, 0x00,
   0x03, 0x58, 0x55, 0x55, 0x55, 0x0f, 0x00, 0x00, 0x00, 0x00, 0x00, 0x00,
   0x0b, 0xef, 0xee, 0xee, 0xee, 0x01, 0x00, 0x00, 0x00, 0x00, 0x00, 0x00,
   0x43, 0x55, 0x55, 0x55, 0x7d, 0x00, 0x00, 0x00, 0x00, 0x00, 0x00, 0x00,
   0xbb, 0xbb, 0xbb, 0xbb, 0x0e, 0x00, 0x00, 0x00, 0x00, 0x00, 0x00, 0x00,
   0x57, 0x55, 0x55, 0xf5, 0x01, 0x00, 0x00, 0x00, 0x00, 0x00, 0x00, 0x00,
   0xef, 0xee, 0xee, 0x1a, 0x00, 0x00, 0x00, 0x00, 0x00, 0x00, 0x00, 0x00,
   0x57, 0x55, 0xd5, 0x07, 0x00, 0x00, 0x00, 0x00, 0x00, 0x00, 0x00, 0x00,
   0xbb, 0xbb, 0x7b, 0x00, 0x00, 0x00, 0x00, 0x00, 0x00, 0x00, 0x00, 0x00,
   0x57, 0x55, 0x0f, 0x00, 0x00, 0x00, 0x00, 0x00, 0x00, 0x00, 0x00, 0x00,
   0xef, 0xee, 0x00, 0x00, 0x00, 0x00, 0x00, 0x00, 0x00, 0x00, 0x00, 0x00,
   0x57, 0x1d, 0x00, 0x00, 0x00, 0x00, 0x00, 0x00, 0x00, 0x00, 0x00, 0x00,
   0xfb, 0x03, 0x00, 0x00, 0x00, 0x00, 0x00, 0x00, 0x00, 0x00, 0x00, 0x00,
   0x3f, 0x00, 0x00, 0x00, 0x00, 0x00, 0x00, 0x00, 0x00, 0x00, 0x00, 0x00,
   0x07, 0x00, 0x00, 0x00, 0x00, 0x00, 0x00, 0x00, 0x00, 0x00, 0x00, 0x00,
   0x00, 0x00, 0x00, 0x00, 0x00, 0x00, 0x00, 0x00, 0x00, 0x00, 0x00, 0x00,
   0x00, 0x00, 0x00, 0x00, 0x00, 0x00, 0x00, 0x00, 0x00, 0x00, 0x00, 0x00 };
